<svg viewBox="0 0 16.0063 17" xmlns="http://www.w3.org/2000/svg" xmlns:xlink="http://www.w3.org/1999/xlink" width="16.006348" height="17.000000" fill="none" customFrame="#000000">
	<path id="Vector" d="M0.506348 15.5268L7.50635 18.5268C2.50635 20.0268 2.50635 16.0268 0.506348 15.5268ZM14.5063 21.5268L14.5063 17.6568C14.5439 17.18 14.4794 16.7006 14.3174 16.2506C14.1553 15.8006 13.8993 15.3902 13.5663 15.0468C16.7063 14.6968 20.0063 13.5068 20.0063 8.04679C20.0061 6.65062 19.469 5.30799 18.5063 4.29679C18.9622 3.0753 18.93 1.72514 18.4163 0.526793C18.4163 0.526793 17.2363 0.176793 14.5063 2.00679C12.2144 1.38561 9.79834 1.38561 7.50635 2.00679C4.77635 0.176793 3.59635 0.526793 3.59635 0.526793C3.08272 1.72514 3.05049 3.0753 3.50635 4.29679C2.53647 5.31549 1.99887 6.67026 2.00635 8.07679C2.00635 13.4968 5.30635 14.6868 8.44635 15.0768C8.11735 15.4168 7.86361 15.8222 7.70166 16.2667C7.5397 16.7112 7.47316 17.1849 7.50635 17.6568L7.50635 21.5268" fill-rule="nonzero" stroke="rgb(0,0,0)" stroke-linecap="round" stroke-linejoin="round" stroke-width="1" />
</svg>
